<?xml version="1.0" encoding="utf-8"?><svg viewBox="0 0 116 59" xmlns="http://www.w3.org/2000/svg" xmlns:xlink="http://www.w3.org/1999/xlink"><style>:root>svg{display:none}:root>svg:target{display:block}</style><svg fill="currentColor" viewBox="0 0 19 14" id="arrow" xmlns="http://www.w3.org/2000/svg"><path fill-rule="evenodd" clip-rule="evenodd" d="M12.343.929l6.364 5.364a1 1 0 010 1.414l-6.364 5.364a1 1 0 01-1.414-1.414L15.586 8H1a1 1 0 010-2h14.586l-4.657-3.657A1 1 0 0112.343.93z" fill="#FF6E30"/></svg><svg fill="none" viewBox="0 0 14 14" id="calendar" xmlns="http://www.w3.org/2000/svg"><path d="M11.667 1.75h-.584V.583H9.917V1.75H4.083V.583H2.917V1.75h-.584a1.17 1.17 0 00-1.166 1.167v9.333a1.17 1.17 0 001.166 1.167h9.334a1.17 1.17 0 001.166-1.167V2.917a1.17 1.17 0 00-1.166-1.167zm0 10.5H2.333V4.667h9.334v7.583z" fill="#999"/></svg><svg fill="none" viewBox="0 0 20 20" id="close" xmlns="http://www.w3.org/2000/svg"><circle cx="10" cy="10" r="10" fill="#666"/><path fill="#fff" d="M6.207 5.5l8.485 8.485-.707.707L5.5 6.207z"/><path fill="#fff" d="M5.59 13.985L14.077 5.5l.707.707-8.485 8.485z"/></svg><svg fill="none" viewBox="0 0 30 30" id="fb" xmlns="http://www.w3.org/2000/svg"><path d="M15 0C6.75 0 0 6.762 0 15.09 0 22.62 5.49 28.87 12.66 30V19.458H8.85V15.09h3.81v-3.328c0-3.78 2.235-5.858 5.67-5.858 1.635 0 3.345.286 3.345.286v3.72h-1.89c-1.86 0-2.445 1.16-2.445 2.349v2.831h4.17l-.675 4.368H17.34V30a14.985 14.985 0 009.075-5.105A15.097 15.097 0 0030 15.09C30 6.762 23.25 0 15 0z" fill="currentColor"/></svg><svg fill="none" viewBox="0 0 30 30" id="instagram" xmlns="http://www.w3.org/2000/svg"><path d="M12.129 15a2.871 2.871 0 105.742 0 2.871 2.871 0 00-5.742 0z" fill="currentColor"/><path d="M8.286 9.92c.138-.374.358-.712.644-.99.278-.286.616-.507.99-.645.304-.118.76-.258 1.6-.296.908-.041 1.18-.05 3.48-.05s2.573.008 3.48.05c.84.038 1.297.178 1.6.296.374.138.713.359.99.645.286.278.506.616.645.99.118.303.258.76.296 1.6.042.908.05 1.18.05 3.48s-.008 2.572-.05 3.48c-.038.84-.178 1.296-.296 1.6a2.67 2.67 0 01-.645.99 2.667 2.667 0 01-.99.645c-.303.118-.76.258-1.6.296-.907.042-1.18.05-3.48.05s-2.572-.008-3.48-.05c-.84-.038-1.296-.178-1.6-.296a2.852 2.852 0 01-1.634-1.635c-.118-.304-.259-.76-.297-1.6-.041-.908-.05-1.18-.05-3.48s.009-2.572.05-3.48c.038-.84.178-1.296.297-1.6zM15 19.423a4.423 4.423 0 100-8.846 4.423 4.423 0 000 8.846zm-4.598-7.987a1.034 1.034 0 100-2.068 1.034 1.034 0 000 2.068z" fill="currentColor"/><path d="M15 0c8.283 0 15 6.717 15 15 0 8.283-6.717 15-15 15-8.283 0-15-6.717-15-15C0 6.717 6.717 0 15 0zM6.439 18.551c.041.917.187 1.543.4 2.09a4.404 4.404 0 002.52 2.52c.547.213 1.173.358 2.09.4.918.042 1.212.052 3.55.052 2.34 0 2.633-.01 3.552-.052.917-.042 1.543-.187 2.09-.4a4.22 4.22 0 001.526-.994c.438-.43.777-.95.994-1.525.213-.548.358-1.174.4-2.09.042-.92.052-1.213.052-3.552 0-2.34-.01-2.633-.052-3.551-.041-.917-.187-1.543-.4-2.09a4.22 4.22 0 00-.994-1.526 4.218 4.218 0 00-1.525-.994c-.548-.213-1.174-.358-2.09-.4-.92-.042-1.213-.052-3.552-.052-2.34 0-2.633.01-3.551.052-.917.042-1.543.187-2.09.4a4.222 4.222 0 00-1.527.994 4.22 4.22 0 00-.993 1.525c-.213.548-.359 1.174-.4 2.09-.042.92-.052 1.213-.052 3.552 0 2.34.01 2.633.052 3.551z" fill="currentColor"/></svg><svg fill="none" viewBox="0 0 24 24" id="search" xmlns="http://www.w3.org/2000/svg"><path d="M18.444 16.688l-3.212-2.747a6.968 6.968 0 001.456-4.285c0-1.88-.734-3.642-2.06-4.97a6.98 6.98 0 00-4.972-2.061 6.99 6.99 0 00-4.97 2.06 6.975 6.975 0 00-2.061 4.971c0 1.878.734 3.645 2.06 4.971a6.975 6.975 0 004.971 2.06c1.57 0 3.061-.51 4.282-1.453l3.212 2.745a.193.193 0 00.272 0l1.022-1.02a.195.195 0 00.056-.136.193.193 0 00-.056-.136zm-5.075-3.32a5.222 5.222 0 01-3.713 1.538 5.222 5.222 0 01-3.712-1.537 5.222 5.222 0 01-1.538-3.713c0-1.401.546-2.72 1.538-3.712a5.222 5.222 0 013.712-1.538c1.402 0 2.721.544 3.713 1.538a5.222 5.222 0 011.537 3.712 5.218 5.218 0 01-1.537 3.713z" fill="#fff" opacity=".7"/></svg><svg fill="none" viewBox="0 0 116 59" id="services-price" xmlns="http://www.w3.org/2000/svg"><path d="M114.5 29.5c0 7.285-5.841 14.27-16.168 19.523C88.088 54.233 73.83 57.5 58 57.5c-15.83 0-30.088-3.267-40.332-8.477C7.34 43.77 1.5 36.785 1.5 29.5S7.34 15.23 17.668 9.977C27.912 4.767 42.17 1.5 58 1.5c15.83 0 30.088 3.267 40.332 8.477C108.66 15.23 114.5 22.215 114.5 29.5z" stroke="#FFF500" stroke-width="3"/><path d="M19 32.46v-4.163h11.536v4.162H19zM33.057 38.405V33.65l6.951-4.311c1.637-.991 2.78-1.853 3.431-2.587.671-.753 1.006-1.526 1.006-2.319 0-.693-.246-1.258-.74-1.694-.473-.456-1.113-.684-1.922-.684-1.242 0-2.16.397-2.75 1.19-.238.316-.405.713-.504 1.188h-5.62a9.232 9.232 0 011.39-3.716C35.916 18.24 38.412 17 41.784 17c2.603 0 4.654.674 6.152 2.022 1.519 1.347 2.278 3.052 2.278 5.113 0 1.705-.483 3.171-1.45 4.4-.965 1.21-2.405 2.369-4.318 3.479l-2.07 1.189-1.184.446v.297l2.071-.297h6.951v4.756H33.057zM55.516 35.938c-1.952-2.042-2.928-4.688-2.928-7.938s.976-5.896 2.928-7.938C57.488 18.021 59.963 17 62.94 17c2.978 0 5.443 1.02 7.395 3.062 1.972 2.042 2.958 4.688 2.958 7.938s-.986 5.896-2.958 7.938C68.383 37.979 65.918 39 62.94 39c-2.977 0-5.452-1.02-7.424-3.062zm4.082-12.368c-.828 1.011-1.242 2.488-1.242 4.43 0 1.942.414 3.419 1.242 4.43.828 1.01 1.942 1.516 3.342 1.516 1.4 0 2.515-.505 3.343-1.516.828-1.011 1.242-2.488 1.242-4.43 0-1.942-.414-3.419-1.242-4.43-.828-1.01-1.942-1.516-3.343-1.516-1.4 0-2.514.506-3.342 1.516zM76.999 25.949c-.986-.972-1.48-2.17-1.48-3.598 0-1.427.494-2.626 1.48-3.597.986-.971 2.218-1.457 3.697-1.457s2.712.486 3.698 1.457c.985.971 1.478 2.17 1.478 3.597s-.493 2.627-1.478 3.598c-.987.97-2.219 1.456-3.698 1.456S77.985 26.92 77 25.95zm1.627 12.456l12.423-20.81h3.845l-12.423 20.81h-3.846zm.798-17.332c-.335.337-.503.763-.503 1.278 0 .516.168.942.503 1.279.335.337.76.505 1.272.505.513 0 .937-.168 1.272-.505.335-.337.503-.763.503-1.279 0-.515-.168-.941-.503-1.278-.335-.337-.76-.505-1.272-.505-.513 0-.937.168-1.272.505zm9.702 16.173c-.986-.971-1.479-2.17-1.479-3.597s.493-2.627 1.48-3.598c.985-.97 2.218-1.456 3.697-1.456s2.711.485 3.697 1.456c.986.972 1.479 2.17 1.479 3.598 0 1.427-.493 2.626-1.479 3.597-.986.971-2.218 1.457-3.697 1.457-1.48 0-2.712-.486-3.698-1.457zm2.426-4.876c-.336.337-.503.763-.503 1.279 0 .515.167.941.503 1.278.335.337.759.505 1.272.505.512 0 .936-.168 1.272-.505.335-.337.502-.763.502-1.278 0-.516-.167-.942-.502-1.279-.336-.337-.76-.505-1.272-.505-.513 0-.937.168-1.272.505z" fill="#FFF500"/></svg><svg fill="none" viewBox="0 0 18 18" id="tel" xmlns="http://www.w3.org/2000/svg"><path d="M16.343 12.098a10.49 10.49 0 01-3.236-.513.896.896 0 00-.926.22l-1.44 1.806c-2.593-1.238-5.023-3.575-6.315-6.261l1.787-1.522a.935.935 0 00.22-.935 10.223 10.223 0 01-.513-3.236.916.916 0 00-.907-.907H1.84C1.346.75.75.97.75 1.657c0 8.516 7.086 15.593 15.593 15.593.65 0 .907-.578.907-1.082v-3.162a.916.916 0 00-.907-.908z" fill="currentColor"/></svg><svg fill="none" viewBox="0 0 30 30" id="vk" xmlns="http://www.w3.org/2000/svg"><path d="M15 0C6.716 0 0 6.716 0 15c0 8.284 6.716 15 15 15 8.284 0 15-6.716 15-15 0-8.284-6.716-15-15-15zm7.609 16.622c.699.683 1.439 1.326 2.066 2.08.278.333.54.677.74 1.065.285.553.027 1.159-.467 1.192l-3.073-.001c-.794.066-1.426-.255-1.958-.797-.425-.433-.82-.894-1.229-1.342a2.871 2.871 0 00-.553-.492c-.42-.272-.783-.189-1.023.249-.245.445-.3.939-.324 1.434-.033.725-.252.914-.979.948-1.554.073-3.028-.163-4.398-.946-1.208-.69-2.144-1.666-2.959-2.77-1.587-2.152-2.803-4.514-3.895-6.944-.246-.547-.066-.84.538-.85a85.522 85.522 0 013.009-.002c.408.007.678.24.835.625.542 1.334 1.206 2.603 2.039 3.78.222.313.448.625.77.846.357.245.628.164.796-.233.107-.253.154-.523.177-.794.08-.927.09-1.854-.049-2.777-.086-.578-.41-.951-.987-1.06-.293-.056-.25-.165-.108-.332.248-.29.48-.47.944-.47h3.472c.547.107.67.353.744.904l.003 3.859c-.006.213.107.845.49.985.307.101.51-.145.693-.34.833-.883 1.426-1.926 1.957-3.005.235-.476.437-.969.634-1.462.146-.365.373-.545.785-.539l3.343.004c.099 0 .199.001.296.018.564.097.718.339.544.889-.275.863-.808 1.583-1.329 2.304-.558.772-1.154 1.517-1.707 2.293-.508.709-.468 1.066.163 1.681z" fill="currentColor"/></svg><svg fill="none" viewBox="0 0 14 14" id="watch" xmlns="http://www.w3.org/2000/svg"><path d="M7 1.167C3.792 1.167 1.167 3.792 1.167 7S3.792 12.833 7 12.833 12.833 10.208 12.833 7 10.208 1.167 7 1.167zM9.45 9.45L6.417 7.583v-3.5h.875v3.034l2.625 1.575-.467.758z" fill="#fff"/></svg></svg>